<svg width="361" height="30" viewBox="0 0 361 30" fill="none" xmlns="http://www.w3.org/2000/svg">
<g clip-path="url(#clip0)">
<path d="M180 0V29.9375L0 0H180Z" fill="#111827"/>
<path d="M1.15371 0.0118835C0.607985 -0.0730065 0.0967736 0.300571 0.0118835 0.846293C-0.0730065 1.39201 0.300571 1.90323 0.846293 1.98812L1.15371 0.0118835ZM0.846293 1.98812L180.846 29.9881L181.154 28.0119L1.15371 0.0118835L0.846293 1.98812Z" fill="#9CA3AF"/>
<g clip-path="url(#clip1)">
<path d="M180 0V29.9375L360 0H180Z" fill="#111827"/>
<path d="M358.846 0.0119486C359.392 -0.0731722 359.903 0.300189 359.988 0.845875C360.073 1.39156 359.7 1.90293 359.154 1.98805L358.846 0.0119486ZM359.154 1.98805L179.654 29.9881L179.346 28.0119L358.846 0.0119486L359.154 1.98805Z" fill="#9CA3AF"/>
</g>
</g>
<defs>
<clipPath id="clip0">
<rect width="361" height="30" fill="white"/>
</clipPath>
<clipPath id="clip1">
<rect width="180" height="30" fill="white" transform="translate(180)"/>
</clipPath>
</defs>
</svg>
