<svg width="48" height="48" viewBox="0 0 48 48" fill="none" xmlns="http://www.w3.org/2000/svg">
<g clip-path="url(#clip0)">
<g filter="url(#filter0_d)">
<path d="M23.5 14.5V43L19.5 38V17C19.5 16.4477 19.0523 16 18.5 16H11.5L8.5 12.5H21.5C22.6046 12.5 23.5 13.3954 23.5 14.5Z" fill="#D1D5DB" stroke="#D1D5DB"/>
<path d="M25.5 14.5V43L29.5 38V17C29.5 16.4477 29.9477 16 30.5 16H37.5L40.5 12.5H27.5C26.3954 12.5 25.5 13.3954 25.5 14.5Z" fill="#D1D5DB" stroke="#D1D5DB"/>
<path d="M4.5 6L7.0974 10H41.5L44 6H4.5Z" fill="#D1D5DB" stroke="#D1D5DB"/>
</g>
</g>
<defs>
<filter id="filter0_d" x="-0.420837" y="5.5" width="49.323" height="46.9254" filterUnits="userSpaceOnUse" color-interpolation-filters="sRGB">
<feFlood flood-opacity="0" result="BackgroundImageFix"/>
<feColorMatrix in="SourceAlpha" type="matrix" values="0 0 0 0 0 0 0 0 0 0 0 0 0 0 0 0 0 0 127 0" result="hardAlpha"/>
<feOffset dy="4"/>
<feGaussianBlur stdDeviation="2"/>
<feComposite in2="hardAlpha" operator="out"/>
<feColorMatrix type="matrix" values="0 0 0 0 0 0 0 0 0 0 0 0 0 0 0 0 0 0 0.25 0"/>
<feBlend mode="normal" in2="BackgroundImageFix" result="effect1_dropShadow"/>
<feBlend mode="normal" in="SourceGraphic" in2="effect1_dropShadow" result="shape"/>
</filter>
<clipPath id="clip0">
<rect width="48" height="48" fill="white"/>
</clipPath>
</defs>
</svg>
