<svg width="230" height="230" viewBox="0 0 230 230" fill="none" xmlns="http://www.w3.org/2000/svg">
<g clip-path="url(#clip0)">
<g filter="url(#filter0_d)">
<path d="M115 115C107.436 115 80.9358 115 65.4358 115C4.13218 115 60 115 4 115C4 53.6964 53.6964 4 115 4C115 88 115 53.6964 115 115Z" fill="#25C9FD"/>
<path d="M113.5 113.5H113.481H113.424H113.367H113.309H113.251H113.193H113.134H113.075H113.015H112.955H112.895H112.834H112.773H112.711H112.649H112.587H112.524H112.461H112.398H112.334H112.27H112.206H112.141H112.075H112.01H111.944H111.878H111.811H111.744H111.676H111.609H111.541H111.472H111.403H111.334H111.265H111.195H111.125H111.054H110.983H110.912H110.841H110.769H110.696H110.624H110.551H110.478H110.404H110.33H110.256H110.182H110.107H110.032H109.956H109.88H109.804H109.727H109.651H109.574H109.496H109.418H109.34H109.262H109.183H109.104H109.025H108.945H108.865H108.785H108.705H108.624H108.543H108.461H108.38H108.298H108.215H108.133H108.05H107.967H107.883H107.799H107.715H107.631H107.546H107.462H107.376H107.291H107.205H107.119H107.033H106.946H106.859H106.772H106.685H106.597H106.509H106.421H106.333H106.244H106.155H106.066H105.976H105.887H105.797H105.706H105.616H105.525H105.434H105.343H105.251H105.16H105.068H104.975H104.883H104.79H104.697H104.604H104.51H104.417H104.323H104.229H104.134H104.04H103.945H103.85H103.754H103.659H103.563H103.467H103.371H103.275H103.178H103.081H102.984H102.887H102.789H102.691H102.593H102.495H102.397H102.298H102.2H102.101H102.002H101.902H101.803H101.703H101.603H101.503H101.402H101.302H101.201H101.1H100.999H100.898H100.796H100.694H100.592H100.49H100.388H100.286H100.183H100.08H99.9774H99.8743H99.771H99.6675H99.5639H99.46H99.356H99.2519H99.1476H99.0431H98.9384H98.8336H98.7287H98.6235H98.5182H98.4128H98.3072H98.2014H98.0955H97.9895H97.8833H97.7769H97.6704H97.5638H97.457H97.3501H97.243H97.1358H97.0284H96.9209H96.8133H96.7055H96.5976H96.4896H96.3814H96.2731H96.1647H96.0562H95.9475H95.8387H95.7298H95.6208H95.5116H95.4023H95.2929H95.1834H95.0738H94.964H94.8542H94.7442H94.6341H94.524H94.4137H94.3033H94.1928H94.0822H93.9715H93.8607H93.7498H93.6388H93.5277H93.4165H93.3052H93.1938H93.0824H92.9708H92.8591H92.7474H92.6356H92.5237H92.4117H92.2997H92.1875H92.0753H91.963H91.8506H91.7381H91.6256H91.513H91.4004H91.2876H91.1748H91.0619H90.949H90.836H90.7229H90.6098H90.4966H90.3834H90.2701H90.1567H90.0433H89.9298H89.8163H89.7027H89.5891H89.4754H89.3617H89.248H89.1342H89.0203H88.9064H88.7925H88.6786H88.5645H88.4505H88.3364H88.2223H88.1082H87.994H87.8798H87.7656H87.6513H87.5371H87.4228H87.3084H87.1941H87.0797H86.9653H86.8509H86.7365H86.6221H86.5076H86.3932H86.2787H86.1642H86.0498H85.9353H85.8208H85.7063H85.5918H85.4773H85.3628H85.2483H85.1338H85.0193H84.9048H84.7903H84.6758H84.5614H84.4469H84.3325H84.218H84.1036H83.9892H83.8748H83.7605H83.6461H83.5318H83.4175H83.3033H83.189H83.0748H82.9606H82.8464H82.7323H82.6182H82.5042H82.3901H82.2761H82.1622H82.0483H81.9344H81.8205H81.7068H81.593H81.4793H81.3657H81.2521H81.1385H81.025H80.9115H80.7981H80.6848H80.5715H80.4583H80.3451H80.232H80.1189H80.006H79.893H79.7802H79.6674H79.5547H79.442H79.3295H79.2169H79.1045H78.9921H78.8799H78.7677H78.6555H78.5435H78.4315H78.3197H78.2079H78.0962H77.9845H77.873H77.7616H77.6502H77.5389H77.4278H77.3167H77.2057H77.0949H76.9841H76.8734H76.7628H76.6524H76.542H76.4317H76.3216H76.2115H76.1016H75.9918H75.8821H75.7725H75.663H75.5536H75.4444H75.3353H75.2262H75.1174H75.0086H74.9H74.7915H74.6831H74.5748H74.4667H74.3587H74.2508H74.1431H74.0355H73.9281H73.8207H73.7136H73.6065H73.4996H73.3929H73.2863H73.1798H73.0735H72.9673H72.8613H72.7555H72.6497H72.5442H72.4388H72.3335H72.2285H72.1235H72.0188H71.9142H71.8097H71.7054H71.6013H71.4974H71.3936H71.29H71.1866H71.0833H70.9802H70.8773H70.7746H70.6721H70.5697H70.4675H70.3655H70.2636H70.162H70.0605H69.9593H69.8582H69.7573H69.6566H69.5561H69.4558H69.3557H69.2557H69.156H69.0565H68.9572H68.8581H68.7591H68.6604H68.5619H68.4636H68.3656H68.2677H68.17H68.0726H67.9753H67.8783H67.7815H67.6849H67.5885H67.4924H67.3965H67.3008H67.2053H67.11H67.015H66.9202H66.8257H66.7313H66.6372H66.5434H66.4497H66.3564H66.2632H66.1703H66.0776H65.9852H65.893H65.8011H65.7094H65.6179H65.5267H65.4358H65.0779H64.7227H64.3702H64.0203H63.6731H63.3285H62.9865H62.6471H62.3104H61.9762H61.6446H61.3155H60.989H60.6651H60.3437H60.0249H59.7085H59.3947H59.0833H58.7745H58.4681H58.1642H57.8628H57.5638H57.2672H56.973H56.6813H56.392H56.1051H55.8205H55.5384H55.2585H54.9811H54.706H54.4332H54.1628H53.8946H53.6288H53.3653H53.104H52.845H52.5883H52.3338H52.0816H51.8316H51.5838H51.3383H51.0949H50.8537H50.6147H50.3779H50.1433H49.9107H49.6804H49.4521H49.226H49.002H48.78H48.5602H48.3425H48.1268H47.9131H47.7016H47.492H47.2845H47.079H46.8755H46.674H46.4745H46.2769H46.0813H45.8877H45.696H45.5063H45.3185H45.1326H44.9486H44.7665H44.5863H44.4079H44.2314H44.0568H43.884H43.713H43.5439H43.3766H43.211H43.0473H42.8853H42.7252H42.5667H42.4101H42.2551H42.1019H41.9504H41.8007H41.6526H41.5062H41.3615H41.2184H41.0771H40.9373H40.7992H40.6628H40.5279H40.3946H40.263H40.1329H40.0044H39.8775H39.7522H39.6283H39.506H39.3853H39.266H39.1483H39.032H38.9173H38.804H38.6922H38.5818H38.4729H38.3654H38.2593H38.1546H38.0513H37.9495H37.849H37.7499H37.6521H37.5557H37.4606H37.3669H37.2745H37.1834H37.0936H37.0051H36.9178H36.8319H36.7472H36.6637H36.5815H36.5005H36.4207H36.3421H36.2648H36.1886H36.1136H36.0397H35.967H35.8955H35.8251H35.7558H35.6876H35.6206H35.5546H35.4897H35.4259H35.3632H35.3015H35.2409H35.1812H35.1227H35.0651H35.0085H34.9529H34.8983H34.8447H34.7921H34.7403H34.6896H34.6397H34.5908H34.5428H34.4957H34.4495H34.4041H34.3597H34.3161H34.2733H34.2314H34.1903H34.15H34.1106H34.0719H34.034H33.9969H33.9606H33.925H33.8902H33.8561H33.8227H33.79H33.7581H33.7268H33.6963H33.6664H33.6371H33.6086H33.5806H33.5534H33.5267H33.5006H33.4752H33.4503H33.426H33.4023H33.3792H33.3566H33.3345H33.313H33.292H33.2716H33.2516H33.2321H33.2131H33.1945H33.1764H33.1588H33.1416H33.1249H33.1085H33.0926H33.077H33.0619H33.0471H33.0327H33.0187H33.005H32.9916H32.9786H32.9659H32.9535H32.9413H32.9295H32.918H32.9067H32.8956H32.8849H32.8743H32.864H32.8539H32.844H32.8342H32.8247H32.8153H32.8062H32.7971H32.7882H32.7794H32.7708H32.7623H32.7538H32.7455H32.7372H32.729H32.7209H32.7128H32.7048H32.6968H32.6888H32.6808H32.6729H32.6649H32.6569H32.6488H32.6407H32.6326H32.6244H32.6161H32.6078H32.5993H32.5908H32.5821H32.5733H32.5644H32.5553H32.5461H32.5367H32.5272H32.5174H32.5075H32.4974H32.487H32.4764H32.4656H32.4545H32.4432H32.4316H32.4197H32.4076H32.3951H32.3824H32.3693H32.3559H32.3421H32.328H32.3136H32.2988H32.2836H32.268H32.252H32.2356H32.2187H32.2015H32.1838H32.1656H32.147H32.128H32.1084H32.0883H32.0678H32.0467H32.0251H32.003H31.9803H31.9571H31.9333H31.909H31.884H31.8585H31.8323H31.8056H31.7782H31.7502H31.7215H31.6922H31.6622H31.6315H31.6002H31.5681H31.5354H31.5019H31.4677H31.4327H31.3971H31.3606H31.3234H31.2854H31.2466H31.207H31.1666H31.1254H31.0834H31.0405H30.9968H30.9522H30.9067H30.8604H30.8131H30.765H30.716H30.666H30.6151H30.5632H30.5104H30.4567H30.4019H30.3462H30.2895H30.2318H30.173H30.1133H30.0525H29.9906H29.9277H29.8638H29.7988H29.7326H29.6654H29.5971H29.5277H29.4571H29.3854H29.3125H29.2385H29.1633H29.087H29.0094H28.9307H28.8507H28.7696H28.6872H28.6035H28.5186H28.4325H28.3451H28.2564H28.1664H28.0751H27.9825H27.8885H27.7933H27.6967H27.5987H27.4994H27.3987H27.2967H27.1932H27.0883H26.982H26.8743H26.7652H26.6546H26.5426H26.4291H26.3141H26.1976H26.0797H25.9602H25.8392H25.7167H25.5927H25.4671H25.3399H25.2112H25.0809H24.9491H24.8156H24.6805H24.5438H24.4054H24.2655H24.1239H23.9806H23.8356H23.689H23.5407H23.3906H23.2389H23.0855H22.9303H22.7733H22.6147H22.4542H22.292H22.128H21.9622H21.7947H21.6253H21.454H21.281H21.1061H20.9293H20.7507H20.5702H20.3878H20.2035H20.0174H19.8293H19.6392H19.4473H19.2534H19.0575H18.8597H18.6599H18.4581H18.2543H18.0485H17.8407H17.6309H17.419H17.2051H16.9891H16.771H16.5509H16.3287H16.1043H15.8779H15.6494H15.4187H15.1859H14.9509H14.7137H14.4744H14.2329H13.9893H13.7434H13.4953H13.245H12.9924H12.7376H12.4806H12.2213H11.9597H11.6958H11.4296H11.1612H10.8904H10.6173H10.3419H10.0641H9.78392H9.50141H9.21652H8.92925H8.63958H8.34751H8.05302H7.7561H7.45674H7.15493H6.85067H6.54394H6.23473H5.92303H5.60883H5.51006C6.30603 54.2154 54.2154 6.30603 113.5 5.51006V5.94719V6.42729V6.90473V7.37952V7.85167V8.32119V8.78808V9.25236V9.71405V10.1731V10.6296V11.0836V11.5349V11.9837V12.43V12.8737V13.3149V13.7536V14.1898V14.6235V15.0547V15.4834V15.9097V16.3335V16.7548V17.1737V17.5902V18.0042V18.4159V18.8251V19.2319V19.6364V20.0385V20.4382V20.8356V21.2306V21.6233V22.0137V22.4017V22.7875V23.1709V23.5521V23.931V24.3076V24.6819V25.054V25.4239V25.7915V26.157V26.5202V26.8812V27.24V27.5966V27.9511V28.3034V28.6535V29.0015V29.3474V29.6912V30.0328V30.3723V30.7097V31.0451V31.3784V31.7096V32.0387V32.3658V32.6908V33.0139V33.3349V33.6539V33.9709V34.2859V34.5989V34.91V35.219V35.5262V35.8314V36.1347V36.436V36.7354V37.0329V37.3286V37.6223V37.9142V38.2042V38.4923V38.7786V39.0631V39.3457V39.6265V39.9055V40.1827V40.4581V40.7318V41.0036V41.2737V41.5421V41.8087V42.0736V42.3367V42.5982V42.8579V43.1159V43.3723V43.627V43.88V44.1314V44.3811V44.6292V44.8756V45.1204V45.3637V45.6053V45.8453V46.0838V46.3207V46.556V46.7898V47.022V47.2527V47.4819V47.7096V47.9358V48.1604V48.3836V48.6053V48.8256V49.0444V49.2617V49.4777V49.6921V49.9052V50.1169V50.3272V50.536V50.7435V50.9497V51.1544V51.3579V51.5599V51.7607V51.9601V52.1582V52.3551V52.5506V52.7448V52.9378V53.1295V53.3199V53.5092V53.6971V53.8839V54.0694V54.2537V54.4368V54.6188V54.7995V54.9791V55.1576V55.3349V55.511V55.686V55.8599V56.0327V56.2044V56.375V56.5445V56.7129V56.8803V57.0466V57.2119V57.3761V57.5393V57.7015V57.8627V58.0229V58.1821V58.3404V58.4977V58.654V58.8093V58.9637V59.1172V59.2698V59.4215V59.5723V59.7221V59.8711V60.0192V60.1665V60.3129V60.4585V60.6032V60.7471V60.8902V61.0325V61.174V61.3147V61.4546V61.5938V61.7322V61.8698V62.0068V62.143V62.2784V62.4132V62.5473V62.6806V62.8133V62.9454V63.0767V63.2074V63.3375V63.4669V63.5957V63.7239V63.8515V63.9785V64.105V64.2308V64.3561V64.4808V64.605V64.7286V64.8517V64.9743V65.0964V65.218V65.339V65.4597V65.5798V65.6995V65.8187V65.9375V66.0559V66.1738V66.2913V66.4084V66.5252V66.6415V66.7575V66.8731V66.9883V67.1032V67.2178V67.332V67.446V67.5596V67.6729V67.7859V67.8987V68.0111V68.1234V68.2353V68.3471V68.4586V68.5698V68.6809V68.7918V68.9024V69.0129V69.1232V69.2334V69.3434V69.4532V69.5629V69.6725V69.782V69.8914V70.0006V70.1098V70.2189V70.3279V70.4369V70.5458V70.6547V70.7636V70.8724V70.9812V71.0901V71.1989V71.3077V71.4166V71.5255V71.6345V71.7435V71.8526V71.9617V72.071V72.1803V72.2897V72.3993V72.509V72.6188V72.7287V72.8388V72.9491V73.0595V73.1701V73.2809V73.3919V73.5031V73.6145V73.7262V73.8381V73.9502V74.0626V74.1753V74.2882V74.4014V74.5149V74.6288V74.7429V74.8574V74.9721V75.0873V75.2028V75.3186V75.4348V75.5514V75.6684V75.7858V75.9036V76.0218V76.1405V76.2596V76.3791V76.4991V76.6196V76.7405V76.8619V76.9838V77.1063V77.2292V77.3527V77.4767V77.6012V77.7263V77.852V77.9782V78.105V78.2324V78.3604V78.489V78.6182V78.7481V78.8786V79.0098V79.1416V79.274V79.4072V79.541V79.6756V79.8108V79.9468V80.0835V80.2209V80.359V80.498V80.6376V80.7781V80.9193V81.0613V81.2042V81.3478V81.4923V81.6376V81.7837V81.9307V82.0785V82.2272V82.3768V82.5273V82.6787V82.831V82.9842V83.1383V83.2933V83.4493V83.6063V83.7642V83.9231V84.083V84.2439V84.4057V84.5686V84.7325V84.8975V85.0634V85.2305V85.3986V85.5677V85.738V85.9093V86.0817V86.2553V86.4299V86.6057V86.7826V86.9607V87.1399V87.3203V87.5018V87.6845V87.8685V88.0536V88.24V88.4275V88.6163V88.8064V88.9977V89.1902V89.3841V89.5792V89.7756V89.9733V90.1723V90.3726V90.5742V90.7772V90.9816V91.1872V91.3943V91.6027V91.8126V92.0238V92.2364V92.4504V92.6659V92.8827V93.1011V93.3209V93.5421V93.7648V93.989V94.2147V94.4419V94.6706V94.9008V95.1325V95.3658V95.6006V95.837V96.0749V96.3145V96.5556V96.7983V97.0426V97.2885V97.5361V97.7853V98.0361V98.2886V98.5427V98.7985V99.056V99.3152V99.5761V99.8387V100.103V100.369V100.637V100.906V101.178V101.451V101.726V102.002V102.281V102.561V102.843V103.127V103.412V103.7V103.989V104.281V104.574V104.869V105.166V105.464V105.765V106.068V106.372V106.679V106.987V107.298V107.61V107.925V108.241V108.559V108.88V109.202V109.526V109.853V110.181V110.512V110.844V111.179V111.516V111.855V112.196V112.539V112.884V113.231V113.5Z" stroke="#25C9FD" stroke-opacity="0.6" stroke-width="3"/>
</g>
</g>
<defs>
<filter id="filter0_d" x="-8" y="-8" width="135" height="135" filterUnits="userSpaceOnUse" color-interpolation-filters="sRGB">
<feFlood flood-opacity="0" result="BackgroundImageFix"/>
<feColorMatrix in="SourceAlpha" type="matrix" values="0 0 0 0 0 0 0 0 0 0 0 0 0 0 0 0 0 0 127 0" result="hardAlpha"/>
<feOffset/>
<feGaussianBlur stdDeviation="6"/>
<feComposite in2="hardAlpha" operator="out"/>
<feColorMatrix type="matrix" values="0 0 0 0 0.145098 0 0 0 0 0.788235 0 0 0 0 0.992157 0 0 0 0.8 0"/>
<feBlend mode="normal" in2="BackgroundImageFix" result="effect1_dropShadow"/>
<feBlend mode="normal" in="SourceGraphic" in2="effect1_dropShadow" result="shape"/>
</filter>
<clipPath id="clip0">
<rect width="230" height="230" fill="white"/>
</clipPath>
</defs>
</svg>
