<svg width="200" height="200" viewBox="0 0 200 200" fill="none" xmlns="http://www.w3.org/2000/svg">
<g clip-path="url(#clip0)">
<g filter="url(#filter0_d)">
<circle cx="100" cy="100" r="92" fill="#111827" fill-opacity="0.9" shape-rendering="crispEdges"/>
<circle cx="100" cy="100" r="92" stroke="#25C9FD" stroke-opacity="0.6" stroke-width="3" shape-rendering="crispEdges"/>
</g>
<path d="M97.5974 81.9675V159.584L87.1558 146.532V90.1039C87.1558 89.5516 86.7081 89.1039 86.1558 89.1039H66.2727L58.4415 79.9675H95.5974C96.7019 79.9675 97.5974 80.863 97.5974 81.9675Z" fill="#D1D5DB" stroke="#D1D5DB"/>
<path d="M102.818 81.9675V159.584L113.26 146.532V90.1039C113.26 89.5516 113.707 89.1039 114.26 89.1039H134.143L141.974 79.9675H104.818C103.714 79.9675 102.818 80.863 102.818 81.9675Z" fill="#D1D5DB" stroke="#D1D5DB"/>
<path d="M48 63L54.7802 73.4416H144.584L151.11 63H48Z" fill="#D1D5DB" stroke="#D1D5DB"/>
</g>
<defs>
<filter id="filter0_d" x="-5.5" y="-5.5" width="211" height="211" filterUnits="userSpaceOnUse" color-interpolation-filters="sRGB">
<feFlood flood-opacity="0" result="BackgroundImageFix"/>
<feColorMatrix in="SourceAlpha" type="matrix" values="0 0 0 0 0 0 0 0 0 0 0 0 0 0 0 0 0 0 127 0" result="hardAlpha"/>
<feOffset/>
<feGaussianBlur stdDeviation="6"/>
<feComposite in2="hardAlpha" operator="out"/>
<feColorMatrix type="matrix" values="0 0 0 0 0.145098 0 0 0 0 0.788235 0 0 0 0 0.992157 0 0 0 0.9 0"/>
<feBlend mode="normal" in2="BackgroundImageFix" result="effect1_dropShadow"/>
<feBlend mode="normal" in="SourceGraphic" in2="effect1_dropShadow" result="shape"/>
</filter>
<clipPath id="clip0">
<rect width="200" height="200" fill="white"/>
</clipPath>
</defs>
</svg>
